<svg width="47" height="47" viewBox="0 0 47 47" fill="none" xmlns="http://www.w3.org/2000/svg">
    <rect x="1" y="1" width="45" height="45" rx="22.5" fill="white" stroke="#FF3737" stroke-width="2"/>
    <path d="M24 12V34" stroke="#FF3737" stroke-width="2" stroke-linecap="round" stroke-linejoin="round"/>
    <path d="M29 16H21.5C20.5717 16 19.6815 16.3687 19.0251 17.0251C18.3687 17.6815 18 18.5717 18 19.5C18 20.4283 18.3687 21.3185 19.0251 21.9749C19.6815 22.6313 20.5717 23 21.5 23H26.5C27.4283 23 28.3185 23.3687 28.9749 24.0251C29.6313 24.6815 30 25.5717 30 26.5C30 27.4283 29.6313 28.3185 28.9749 28.9749C28.3185 29.6313 27.4283 30 26.5 30H18" stroke="#FF3737" stroke-width="2" stroke-linecap="round" stroke-linejoin="round"/>
</svg>
