<svg width="53" height="53" viewBox="0 0 53 53" fill="none" xmlns="http://www.w3.org/2000/svg">
<circle cx="26.5" cy="26.5" r="26.5" fill="#F54245"/>
<path d="M33.5 35C34.8807 35 36 33.8807 36 32.5C36 31.1193 34.8807 30 33.5 30C32.1193 30 31 31.1193 31 32.5C31 33.8807 32.1193 35 33.5 35Z" stroke="white" stroke-width="2" stroke-linecap="round" stroke-linejoin="round"/>
<path d="M20.5 35C21.8807 35 23 33.8807 23 32.5C23 31.1193 21.8807 30 20.5 30C19.1193 30 18 31.1193 18 32.5C18 33.8807 19.1193 35 20.5 35Z" stroke="white" stroke-width="2" stroke-linecap="round" stroke-linejoin="round"/>
<path d="M31 22H35L38 25V30H31V22Z" stroke="white" stroke-width="2" stroke-linecap="round" stroke-linejoin="round"/>
<path d="M31 17H16V30H31V17Z" stroke="white" stroke-width="2" stroke-linecap="round" stroke-linejoin="round"/>
</svg>
