<svg width="100" height="100" viewBox="0 0 100 100" fill="none" xmlns="http://www.w3.org/2000/svg">
<circle cx="50" cy="50" r="49.5" fill="white" stroke="#EDEDED"/>
<circle cx="50.0001" cy="49.9996" r="42.7835" fill="#F54245"/>
<path fill-rule="evenodd" clip-rule="evenodd" d="M37.585 37.043L37.585 37.043L37.585 37.0432C38.1782 39.2112 38.7708 41.3771 39.3157 43.5453C40.154 46.8818 41.1819 50.8929 44.076 53.0814C48.071 56.1023 54.9859 54.8341 57.827 50.8946C59.4011 48.7115 60.0098 45.9937 60.5982 43.366L60.5983 43.3659C60.7437 42.7163 60.888 42.0722 61.0453 41.4431C61.4557 39.8014 61.9555 38.1294 62.4602 36.4407C63.6272 32.5363 64.8209 28.5425 64.9999 24.6262L46.0809 24.1007L34.5192 24.6262C35.3278 28.7929 36.4574 32.9218 37.585 37.0429L37.585 37.043ZM30.5948 62.6755C30.5203 61.3342 30.4475 60.0228 30.3623 58.7856C30.2663 57.3913 30.1681 55.9974 30.07 54.6036C29.4039 45.1463 28.7384 35.6971 28.7384 26.2028C21.1466 26.8866 19.3105 34.4092 19.2795 40.9176C19.2759 41.6651 19.267 42.4485 19.2578 43.2605C19.131 54.4304 18.9428 71.0129 31.6267 74.0259C31.0406 70.7046 30.8107 66.5639 30.5948 62.6755ZM69.6403 57.209C70.6173 46.951 71.3062 36.5075 71.3062 26.2028C77.7208 26.8634 79.6542 32.1292 80.3884 37.7644C80.7095 40.2302 80.793 42.6341 80.7636 45.1218C80.751 46.1868 80.6277 47.2344 80.5045 48.2823L80.5045 48.2824C80.4021 49.1523 80.2998 50.0224 80.2607 50.9027L80.2494 51.1582C79.8702 59.7754 79.2887 72.9904 68.153 73.5004C68.1634 69.7905 68.6126 66.075 69.0604 62.3712C69.2688 60.6473 69.4769 58.926 69.6403 57.209ZM39.7745 75.077H60.2701C59.7625 71.6279 58.734 65.6085 55.9477 63.2599C54.4972 62.0365 52.6148 61.9629 50.8106 61.9408C50.5253 61.9373 50.2328 61.9295 49.9359 61.9216C48.1226 61.8732 46.1402 61.8202 44.5611 62.7044C41.2113 64.5795 40.0609 71.5675 39.7745 75.077Z" fill="#FDFDFD"/>
</svg>
