<svg width="100" height="100" viewBox="0 0 100 100" fill="none" xmlns="http://www.w3.org/2000/svg">
<circle cx="50" cy="50" r="49.5" fill="white" stroke="#EDEDED"/>
<circle cx="50.0001" cy="50.0001" r="42.7835" fill="#FDC100"/>
<path fill-rule="evenodd" clip-rule="evenodd" d="M50.8376 48.8828C51.2977 50.006 51.7949 51.2197 52.2089 52.3265L55.4762 61.1571C55.5997 61.4882 55.7241 61.9172 55.8603 62.3869C56.2649 63.7824 56.7737 65.537 57.672 66.1516C58.2203 66.5269 58.9563 66.3958 59.5937 66.2822C59.6906 66.265 59.7853 66.2481 59.8767 66.2335C61.6614 65.9482 63.4346 65.6489 65.1751 65.1523C72.4882 63.0654 80.3692 58.4535 80.7451 49.9717C81.0851 42.2968 73.3177 37.6814 66.9412 35.7604C56.7213 32.6818 44.8433 32.4908 34.5625 35.4246C30.3388 36.6296 25.855 38.3913 22.8426 41.7343C21.8444 42.8419 20.9923 44.1639 20.4539 45.5564C16.7027 55.2583 25.8594 62.1417 33.9738 64.7864C34.237 64.8722 34.5254 64.9699 34.833 65.074C37.0221 65.8152 40.1829 66.8854 42.1526 66.3574C43.3619 66.0334 44.0827 63.7245 44.5725 62.1554C44.6955 61.7617 44.8038 61.4146 44.9017 61.1571L48.2722 52.0322C48.6316 51.0873 49.0395 50.1133 49.4351 49.1684C49.7019 48.5315 49.963 47.9078 50.2001 47.3152C50.3941 47.8003 50.6114 48.3306 50.8376 48.8828ZM60.1354 53.2038C60.9756 54.4182 61.9001 55.7542 63.0718 56.3606C64.3036 56.9982 65.6448 56.328 66.7698 55.7659C66.8091 55.7462 66.8482 55.7267 66.8869 55.7074C69.4984 54.4058 72.6491 52.2711 72.7336 49.0103C72.8634 44.0049 66.3562 41.5497 62.4716 40.392C54.4726 38.008 45.1205 38.0239 37.1574 40.5754C34.0069 41.5847 30.5345 42.9626 28.5623 45.7727C25.7707 49.7506 29.1749 53.5642 32.7421 55.4101C32.8774 55.4801 33.0165 55.5544 33.1588 55.6304C34.1951 56.1839 35.4022 56.8287 36.5643 56.5654C37.8987 56.263 38.9644 54.7375 39.8442 53.4781C40.0826 53.1368 40.3073 52.8151 40.5201 52.5425L50.1089 40.4741L59.2329 51.9538C59.5277 52.3256 59.8258 52.7564 60.1354 53.2038Z" fill="white"/>
</svg>
