<svg width="201" height="56" viewBox="0 0 201 56" fill="none" xmlns="http://www.w3.org/2000/svg">
<path d="M53.4875 21.5886L46.2495 36.9852L39.0115 21.5886H35.6226L44.7852 41.0016H47.7139L56.8765 21.5886H53.4875Z" fill="white"/>
<path d="M67.9741 21.0866C62.033 21.0866 57.64 25.4378 57.64 31.2951C57.64 37.1525 62.033 41.5037 67.9741 41.5037C73.8733 41.5037 78.2663 37.1525 78.2663 31.2951C78.2663 25.4378 73.8733 21.0866 67.9741 21.0866ZM67.9741 38.575C63.8739 38.575 60.8197 35.479 60.8197 31.2951C60.8197 27.1113 63.8739 24.0153 67.9741 24.0153C72.0324 24.0153 75.0448 27.1113 75.0448 31.2951C75.0448 35.479 72.0324 38.575 67.9741 38.575Z" fill="white"/>
<path d="M82.6391 11.2964V41.0016H85.8188V11.2964H82.6391Z" fill="white"/>
<path d="M103.862 37.8638C102.816 38.2403 101.603 38.5332 100.515 38.5332C97.7535 38.5332 96.331 37.1525 96.331 33.8054V24.3081H103.653V21.5886H96.331V14.4343H93.1513V21.5886H88.0889V24.3081H93.1513V33.8054C93.1513 38.8679 95.4524 41.5037 100.222 41.5037C101.393 41.5037 102.732 41.3363 104.322 40.7924L103.862 37.8638Z" fill="white"/>
<path d="M127.674 20.71V21.756C126.168 20.7519 124.369 20.1661 122.11 20.1661C116.629 20.1661 112.027 24.7683 112.027 30.8349C112.027 36.8596 116.629 41.5455 122.11 41.5455C124.369 41.5455 126.168 40.918 127.674 39.9138V41.0016H134.452V20.71H127.674ZM123.49 35.7718C120.729 35.7718 118.679 33.6381 118.679 30.8349C118.679 28.0317 120.729 25.898 123.49 25.898C124.955 25.898 126.377 26.2745 127.674 27.697V33.9728C126.377 35.3953 124.955 35.7718 123.49 35.7718Z" fill="white"/>
<path d="M151.774 20.71V33.4289C150.603 34.7259 149.306 35.4371 148.05 35.4371C145.833 35.4371 144.327 34.0565 144.327 31.1696V20.71H137.549V32.2156C137.549 37.9893 141.063 41.5455 146.21 41.5455C148.385 41.5455 150.142 40.8343 151.774 39.5791V41.0016H158.552V20.71H151.774Z" fill="white"/>
<path d="M177.44 34.4749C176.226 34.9351 175.139 35.3116 173.842 35.3116C171.875 35.3116 170.662 34.3493 170.662 32.2574V26.5256H177.565V20.71H170.662V13.8067H163.884V20.71H159.909V26.5256H163.884V32.4666C163.884 37.9474 167.231 41.5455 172.754 41.5455C173.925 41.5455 176.101 41.42 178.193 40.5414L177.44 34.4749Z" fill="white"/>
<path d="M189.871 20.1661C183.344 20.1661 178.7 24.6428 178.7 30.8767C178.7 37.1525 183.344 41.5455 189.871 41.5455C196.398 41.5455 201 37.1525 201 30.8767C201 24.6428 196.398 20.1661 189.871 20.1661ZM189.871 35.8974C187.026 35.8974 185.059 33.8473 185.059 30.8767C185.059 27.9481 187.026 25.8561 189.871 25.8561C192.674 25.8561 194.64 27.9481 194.64 30.8767C194.64 33.8473 192.674 35.8974 189.871 35.8974Z" fill="white"/>
<path fill-rule="evenodd" clip-rule="evenodd" d="M12.7082 0L0 33.5275L15.1155 33.996L12.7082 0Z" fill="white"/>
<path fill-rule="evenodd" clip-rule="evenodd" d="M11.7401 55.9684L24.4525 22.4304L10.148 22.0574L11.7401 55.9684Z" fill="white"/>
</svg>