<svg width="100" height="100" viewBox="0 0 100 100" fill="none" xmlns="http://www.w3.org/2000/svg">
<circle cx="50" cy="50" r="49.5" fill="white" stroke="#EDEDED"/>
<circle cx="50.0001" cy="49.9998" r="42.7835" fill="#8031FF"/>
<path d="M43.2027 31.0697C45.3566 27.5729 47.8063 24.1042 49.5525 20.3884C52.8967 23.4589 55.0041 28.5343 57.3392 32.4049C58.1814 33.8015 59.7056 35.5634 59.379 37.3005C59.0845 38.864 57.7898 40.411 56.9812 41.751C54.7678 45.4201 51.7493 49.2333 50.4475 53.3224H62.9778C64.7052 53.3224 67.0905 52.9112 68.7127 53.5908C70.3358 54.2713 71.0997 56.3622 71.933 57.773C74.2198 61.645 77.0937 65.5632 78.6408 69.7895H65.2154C63.5587 69.7895 61.0352 70.2447 59.5674 69.3319C58.0114 68.3648 57.1472 65.9749 56.2652 64.4488C54.152 60.7918 51.6795 57.1984 50 53.3224C47.6268 56.9002 45.5477 60.7246 43.4131 64.4488C42.5216 66.0038 41.6065 68.3693 40.0075 69.3319C38.5092 70.2341 36.0166 69.7895 34.3371 69.7895H21.3592C22.1768 65.5735 25.6258 61.479 27.7501 57.773C28.5315 56.4098 29.3733 54.2709 30.9042 53.5908C32.475 52.8939 34.8902 53.3224 36.5746 53.3224H49.5525C47.6609 49.2974 44.9968 45.6039 42.7727 41.751C41.8942 40.2289 40.2738 38.2609 40.4376 36.4104C40.6018 34.5567 42.2531 32.6114 43.2027 31.0697Z" fill="white"/>
</svg>
