<svg width="100" height="100" viewBox="0 0 100 100" fill="none" xmlns="http://www.w3.org/2000/svg">
<circle cx="50" cy="50" r="49.5" fill="white" stroke="#EDEDED"/>
<circle cx="50" cy="49.9997" r="42.7835" fill="#0084FE"/>
<path fill-rule="evenodd" clip-rule="evenodd" d="M15.3121 43.0456C16.2084 42.3358 17.8959 42.446 19.2655 42.5354H19.2655C19.6796 42.5624 20.0647 42.5876 20.3901 42.5876C21.1769 38.1735 24.3203 34.4567 27.5189 31.4889C38.515 21.2867 57.4728 20.6474 69.8461 28.6414C73.0385 30.7043 75.7996 33.2163 77.9667 36.3499C78.3752 36.9403 78.7277 37.7096 79.0915 38.5036L79.0916 38.5037C79.7452 39.9303 80.4355 41.4369 81.553 42.1296C82.5575 42.7523 84.0154 42.6827 85.2974 42.6216L85.2975 42.6216C85.6611 42.6043 86.0106 42.5876 86.3315 42.5876V56.8452C86.0151 56.8452 85.6681 56.8279 85.306 56.8099C84.037 56.7468 82.5825 56.6744 81.606 57.3032C80.6534 57.9163 80.0763 59.1716 79.5419 60.3337C79.3077 60.8431 79.0818 61.3346 78.836 61.7463C77.2516 64.4009 75.3215 66.7311 72.965 68.741C66.5785 74.1887 58.0408 76.4628 49.7964 76.4494C41.5764 76.4361 33.2215 73.3328 27.08 67.8552C25.0216 66.0191 23.3155 63.6813 21.9339 61.3007C21.7127 60.9199 21.5191 60.4869 21.3215 60.0447C20.8485 58.9867 20.3521 57.8764 19.3987 57.3032C18.3897 56.6961 17.1328 56.7514 15.8093 56.8097C15.4099 56.8273 15.0044 56.8452 14.5979 56.8452V46.5975C14.5983 46.4196 14.5917 46.2244 14.5847 46.0192C14.5495 44.981 14.5056 43.6844 15.3121 43.0456ZM28.3817 41.7066H72.4912C70.9567 36.9013 66.2575 33.3044 61.798 31.3101C50.4271 26.2246 33.7287 29.3172 28.3817 41.7066ZM25.2628 45.271V52.3998H27.4906V47.4987C27.6777 47.7815 27.8544 48.0542 28.0241 48.316L28.0249 48.3172L28.025 48.3175C29.6722 50.8591 30.6626 52.3873 34.1738 52.3998V45.271H32.3916V50.6176C31.9755 50.0761 31.6104 49.5561 31.2672 49.0674L31.2672 49.0673L31.2671 49.0673C29.7121 46.8528 28.6096 45.2827 25.2628 45.271ZM35.5105 52.3998V45.271H37.7382V52.3998H35.5105ZM44.867 49.7265V50.6176H39.0749V52.3998C39.5853 52.3998 40.1561 52.4349 40.753 52.4716C42.4361 52.5752 44.3268 52.6915 45.6566 52.0692C47.2623 51.3171 47.2971 48.9552 45.6566 48.2129C44.8521 47.8493 43.8499 47.7887 42.8582 47.7287H42.8582C42.162 47.6866 41.4709 47.6448 40.8571 47.4987C42.4212 47.0362 43.9737 47.0436 45.5826 47.0512C45.7887 47.0522 45.9957 47.0532 46.2037 47.0532V45.271C45.7851 45.271 45.2982 45.239 44.7795 45.205C43.1634 45.099 41.2386 44.9728 40.1077 45.729C38.9091 46.5301 38.9163 48.4041 40.1077 49.2012C41.1127 49.8734 42.6058 49.8099 43.9028 49.7547C44.2417 49.7403 44.5672 49.7265 44.867 49.7265ZM53.778 50.6176V49.7265C53.4719 49.7265 53.1457 49.7397 52.8095 49.7533C51.6613 49.7999 50.3974 49.8512 49.4241 49.3959C48.0006 48.7293 47.7386 46.719 49.0704 45.7963C50.2769 44.9605 52.3419 45.0928 54.0705 45.2036C54.6124 45.2384 55.1213 45.271 55.5602 45.271V47.0532H50.2136V47.9443C50.529 47.9443 50.8797 47.926 51.2479 47.9067C52.5265 47.8399 54.0162 47.762 54.973 48.4023C56.1724 49.2047 56.1724 51.1393 54.973 51.9418C53.73 52.7734 51.5022 52.6153 49.6555 52.4842C49.0397 52.4405 48.4663 52.3998 47.9859 52.3998C48.6553 50.3832 50.7081 50.4844 52.6201 50.5788L52.6202 50.5788C53.0167 50.5983 53.4072 50.6176 53.778 50.6176ZM58.7062 51.7691C59.573 51.4315 60.4308 51.0974 61.3413 51.1527C62.1238 51.2002 62.8368 51.4829 63.5567 51.7683C64.275 52.0531 65.0001 52.3406 65.8079 52.3998C65.6942 52.1066 65.5676 51.7363 65.4251 51.3194C64.5337 48.7112 63.0197 44.2815 60.1378 45.5419C58.5322 46.2443 57.5951 49.0424 56.9102 51.0875C56.7445 51.5825 56.5935 52.0334 56.4514 52.3998C57.2343 52.3424 57.9734 52.0545 58.7062 51.7691ZM66.699 52.3998V45.271C70.0798 45.283 71.1568 46.8312 72.6998 49.0493C73.0427 49.5421 73.4086 50.0681 73.8278 50.6176V45.271H75.61V52.3998C72.1671 52.3876 71.1096 50.7905 69.4424 48.2726C69.2775 48.0234 69.1066 47.7653 68.9268 47.4987V52.3998H66.699ZM62.6892 67.6184C51.1356 73.5407 33.8509 70.1589 28.3818 57.4861H72.4913C71.0958 62.1952 66.9045 65.4575 62.6892 67.6184Z" fill="white"/>
</svg>
