<svg width="53" height="53" viewBox="0 0 53 53" fill="none" xmlns="http://www.w3.org/2000/svg">
<circle cx="26.5" cy="26.5" r="26.5" fill="#FDC100"/>
<path d="M27 15V37" stroke="white" stroke-width="2" stroke-linecap="round" stroke-linejoin="round"/>
<path d="M32 19H24.5C23.5717 19 22.6815 19.3687 22.0251 20.0251C21.3687 20.6815 21 21.5717 21 22.5C21 23.4283 21.3687 24.3185 22.0251 24.9749C22.6815 25.6313 23.5717 26 24.5 26H29.5C30.4283 26 31.3185 26.3687 31.9749 27.0251C32.6313 27.6815 33 28.5717 33 29.5C33 30.4283 32.6313 31.3185 31.9749 31.9749C31.3185 32.6313 30.4283 33 29.5 33H21" stroke="white" stroke-width="2" stroke-linecap="round" stroke-linejoin="round"/>
</svg>
