<svg width="100" height="100" viewBox="0 0 100 100" fill="none" xmlns="http://www.w3.org/2000/svg">
<circle cx="50" cy="50" r="49.5" fill="white" stroke="#EDEDED"/>
<circle cx="50.0001" cy="49.9998" r="42.7835" fill="#2ABB52"/>
<path d="M26.8293 40.7665C35.405 38.4222 43.0242 32.3218 49.7949 26.8292C55.0867 29.7741 59.9835 33.6323 64.9687 37.067C67.734 38.9719 71.032 40.6001 73.1707 43.2261C67.6733 47.415 60.6507 48.0828 54.7162 44.4292C52.1793 42.8678 49.7878 41.0826 47.3347 39.397C45.8425 38.3718 44.9173 37.3043 43.2333 38.307C50.4094 42.3005 56.9721 47.7319 63.7384 52.3841C66.6677 54.398 71.3142 56.5563 73.1707 59.6229C67.6376 61.2039 62.2555 64.585 57.5869 67.8803C55.5601 69.3114 52.6505 72.7219 50.205 73.1421C48.1647 73.4926 45.2442 70.528 43.6434 69.461C38.0017 65.7008 32.6009 61.5434 26.8293 57.9832V57.1634C31.5098 54.3283 37.5422 51.9582 42.8232 54.6633C45.9764 56.2787 48.9331 58.4464 51.8454 60.453C53.4324 61.5466 54.77 62.8842 56.7667 62.9022V62.0824C54.1977 61.0945 52.0469 59.142 49.7949 57.5835C44.9873 54.2554 40.2153 50.8752 35.4414 47.4991C32.7171 45.5724 28.5758 43.652 26.8293 40.7665Z" fill="white"/>
</svg>
