<svg width="100" height="100" viewBox="0 0 100 100" fill="none" xmlns="http://www.w3.org/2000/svg">
<circle cx="50" cy="50" r="49.5" fill="white" stroke="#EDEDED"/>
<circle cx="50.0001" cy="49.9996" r="42.7835" fill="#5C57FC"/>
<path fill-rule="evenodd" clip-rule="evenodd" d="M46.9549 25.1693C41.3707 25.9047 36.012 26.7039 30.8886 29.2214C19.3083 34.9117 10.5787 47.8194 18.7759 60.1572C20.4638 62.6974 22.8194 64.8876 25.2437 66.7144C34.5587 73.7336 47.0235 75.0258 58.2447 73.549C62.5487 72.9824 66.9999 71.5099 70.8371 69.499C74.0061 67.8381 77.0326 65.8668 79.4461 63.195C81.1777 61.2783 82.6901 59.082 83.6667 56.6834C87.1335 48.1689 83.6684 39.4463 76.8993 33.7107C69.2792 27.2544 56.8634 23.8645 46.9549 25.1693ZM26.7998 37.7341C30.1347 41.8304 36.737 44.8866 41.9976 45.1159C42.1153 39.4124 44.217 32.4836 49.3794 29.4839C47.5753 28.9289 44.997 29.4241 43.0842 29.7915L42.8661 29.8333C36.9012 30.9748 31.2124 33.5232 26.7998 37.7341ZM52.8532 29.4839C56.2284 34.4245 58.9154 38.9237 58.9324 45.1159C63.0141 45.029 67.2981 43.1456 70.6564 40.8826C70.7635 40.8104 70.8846 40.7317 71.0151 40.6469C72.1333 39.9205 73.9415 38.7458 73.5457 37.3689C73.1373 35.9475 71.0368 34.8357 69.579 34.064C69.3381 33.9365 69.1148 33.8183 68.9195 33.7095C63.9711 30.9528 58.5038 29.4845 52.8532 29.4839ZM54.1559 46.4186H46.7741C46.7945 43.9365 47.105 41.333 48.1241 39.0388C48.5787 38.015 49.3521 36.7239 50.643 36.7578C51.8432 36.7892 52.4846 38.1051 52.9053 39.0435C53.9705 41.418 54.1542 43.8583 54.1559 46.4186ZM23.0847 42.6615C22.1796 44.8503 21.2735 47.0413 21.2109 49.4581C20.8753 62.4171 35.5681 68.9322 46.3399 70.3009C45.9115 69.2674 45.4545 68.2753 45.0028 67.2947C43.7829 64.6464 42.6015 62.0817 42.1262 59.0111C42.0151 58.2936 42.007 57.3055 41.9983 56.2437C41.981 54.1256 41.9613 51.7141 41.117 50.5715C40.41 49.6146 38.6973 49.2484 37.2049 48.9293C36.5562 48.7906 35.9491 48.6608 35.4843 48.4952C32.9769 47.602 30.7792 46.2774 28.5853 44.955C26.878 43.9259 25.1729 42.8983 23.326 42.0763C23.246 42.2715 23.1654 42.4665 23.0847 42.6615ZM65.8799 48.4051C69.9977 46.8558 73.7237 44.8093 77.1697 42.0763C80.5919 45.4919 80.1945 51.3581 78.5996 55.5373C75.2453 64.3277 64.0388 69.8419 55.0243 69.8666C55.1529 69.5579 55.281 69.2515 55.4083 68.9469C57.0226 65.086 58.5143 61.5182 59.176 57.2742C59.2764 56.6294 59.2421 55.7951 59.206 54.9188C59.1398 53.3102 59.0678 51.5602 59.813 50.5822C60.5177 49.6571 62.3526 49.2555 63.9458 48.9069L63.9458 48.9069C64.6898 48.744 65.3811 48.5927 65.8799 48.4051ZM46.5765 52.874C46.8091 55.0926 47.0415 57.3099 47.7368 59.4453C48.1046 60.5751 48.6504 62.2078 49.9044 62.6316C51.5063 63.1731 52.4911 61.5556 52.977 60.3116C54.1229 57.3812 54.5641 53.8882 54.5901 50.7608H46.3399C46.4287 51.4636 46.5026 52.1689 46.5765 52.874Z" fill="white"/>
</svg>
